<svg width="103" height="97" viewBox="0 0 103 97" fill="none" xmlns="http://www.w3.org/2000/svg">
<g opacity="0.1" clip-path="url(#clip0_2642_1741)">
<path d="M36.6666 32.0833C36.6666 36.9456 38.5982 41.6088 42.0363 45.047C45.4745 48.4851 50.1377 50.4167 55 50.4167C59.8623 50.4167 64.5254 48.4851 67.9636 45.047C71.4018 41.6088 73.3333 36.9456 73.3333 32.0833C73.3333 27.221 71.4018 22.5579 67.9636 19.1197C64.5254 15.6815 59.8623 13.75 55 13.75C50.1377 13.75 45.4745 15.6815 42.0363 19.1197C38.5982 22.5579 36.6666 27.221 36.6666 32.0833Z" stroke="#C92A2A" stroke-width="6" stroke-linecap="round" stroke-linejoin="round"/>
<path d="M27.5 96.25V87.0833C27.5 82.221 29.4315 77.5579 32.8697 74.1197C36.3079 70.6815 40.971 68.75 45.8333 68.75H64.1667C69.029 68.75 73.6921 70.6815 77.1303 74.1197C80.5685 77.5579 82.5 82.221 82.5 87.0833V96.25" stroke="#C92A2A" stroke-width="6" stroke-linecap="round" stroke-linejoin="round"/>
</g>
<defs>
<clipPath id="clip0_2642_1741">
<rect width="110" height="110" fill="white"/>
</clipPath>
</defs>
</svg>
