<svg width="89" height="89" viewBox="0 0 89 89" fill="none" xmlns="http://www.w3.org/2000/svg">
<g opacity="0.1" clip-path="url(#clip0_2642_1759)">
<path d="M51.9166 11.125V25.9583C51.9166 26.9418 52.3073 27.8851 53.0028 28.5805C53.6982 29.276 54.6414 29.6667 55.625 29.6667H70.4583" stroke="#1864AB" stroke-width="6" stroke-linecap="round" stroke-linejoin="round"/>
<path d="M18.5416 29.6667V18.5417C18.5416 16.5746 19.323 14.6882 20.7139 13.2973C22.1048 11.9064 23.9913 11.125 25.9583 11.125H51.9166L70.4583 29.6667V70.4583C70.4583 72.4254 69.6769 74.3118 68.286 75.7027C66.8951 77.0936 65.0087 77.875 63.0416 77.875H44.5" stroke="#1864AB" stroke-width="6" stroke-linecap="round" stroke-linejoin="round"/>
<path d="M11.125 51.9166C11.125 54.8672 12.2971 57.6968 14.3834 59.7832C16.4698 61.8695 19.2995 63.0416 22.25 63.0416C25.2005 63.0416 28.0302 61.8695 30.1166 59.7832C32.2029 57.6968 33.375 54.8672 33.375 51.9166C33.375 48.9661 32.2029 46.1364 30.1166 44.0501C28.0302 41.9637 25.2005 40.7916 22.25 40.7916C19.2995 40.7916 16.4698 41.9637 14.3834 44.0501C12.2971 46.1364 11.125 48.9661 11.125 51.9166Z" stroke="#1864AB" stroke-width="6" stroke-linecap="round" stroke-linejoin="round"/>
<path d="M16.6875 63.0416L11.125 81.5833L22.25 76.0208L33.375 81.5833L27.8125 63.0416" stroke="#1864AB" stroke-width="6" stroke-linecap="round" stroke-linejoin="round"/>
</g>
<defs>
<clipPath id="clip0_2642_1759">
<rect width="89" height="89" fill="white"/>
</clipPath>
</defs>
</svg>
