<svg width="118" height="29" viewBox="0 0 118 29" fill="none" xmlns="http://www.w3.org/2000/svg">
<path d="M116.976 25.6827C116.88 25.3406 116.72 25.0852 116.488 24.9118C116.027 25.1353 115.553 25.3132 115.069 25.4455C114.585 25.5778 114.102 25.6416 113.627 25.6462C112.496 25.6508 111.634 25.3953 111.041 24.8753C112.519 24.0589 113.664 23.1876 114.476 22.2617C115.288 21.3357 115.74 20.3642 115.822 19.347C115.876 18.6628 115.767 18.0516 115.484 17.5133C115.201 16.9751 114.795 16.5509 114.262 16.2361C113.732 15.9214 113.112 15.7663 112.409 15.7709C111.575 15.7755 110.804 16.0035 110.106 16.4505C109.403 16.8975 108.833 17.4996 108.381 18.2568C107.934 19.014 107.669 19.8761 107.587 20.8477C107.478 22.1522 107.628 23.3245 108.03 24.369C107.104 24.8662 106.246 25.2129 105.452 25.409C104.668 25.6006 103.897 25.7009 103.135 25.7055C101.981 25.7055 101.068 25.368 100.393 24.6838C99.7134 23.995 99.3576 23.0508 99.3256 21.842C99.5857 21.874 99.8548 21.8877 100.133 21.8831C101.917 21.874 103.377 21.4954 104.499 20.7519C105.626 20.0084 106.237 19.0231 106.342 17.8007C106.392 17.1986 106.278 16.6558 106 16.1723C105.722 15.6888 105.316 15.3102 104.791 15.0365C104.266 14.7628 103.66 14.626 102.971 14.6306C102.067 14.6351 101.233 14.8541 100.462 15.2874C99.6906 15.7207 99.0337 16.3091 98.4999 17.0481C97.9616 17.7916 97.5921 18.6309 97.3822 19.5659C96.8165 19.4428 96.2189 19.2193 95.5848 18.8954C95.2335 18.7175 94.9142 18.5259 94.6177 18.3207C94.4808 17.7596 94.2938 17.2989 94.0383 16.9523C93.76 16.5646 93.4315 16.373 93.0529 16.373C92.7746 16.373 92.4735 16.4688 92.1451 16.6512C91.8166 16.8337 91.5155 17.0754 91.2372 17.3719C90.959 17.6684 90.7491 17.974 90.6077 18.2933C90.8951 18.7859 91.5292 19.3424 92.5055 19.9719C92.5283 20.3049 92.5237 20.6378 92.4963 20.9708C92.4188 21.8922 92.1952 22.7087 91.8257 23.4157C91.4562 24.1227 90.9772 24.6792 90.3841 25.0806C89.7956 25.482 89.1296 25.6827 88.3951 25.6873C87.7063 25.6873 87.1406 25.555 86.6981 25.2813C86.2556 25.0076 85.886 24.5743 85.5895 23.9904C85.5484 23.8946 85.5074 23.7943 85.4663 23.6803C86.6296 22.2936 87.6424 20.8157 88.5137 19.2466C89.3805 17.6775 90.0739 16.0902 90.5894 14.4846C91.1049 12.879 91.4288 11.319 91.552 9.80921C91.698 8.03029 91.479 6.61627 90.8951 5.5626C90.3112 4.50893 89.4626 3.98894 88.3495 3.9935C87.5466 3.99806 86.8349 4.217 86.2054 4.65033C85.5804 5.08366 85.0786 5.69488 84.6999 6.49312C84.4444 7.03592 84.2346 7.71099 84.0795 8.52291C83.9244 9.33483 83.7875 10.3976 83.678 11.7159L83.1306 18.3389C82.9572 20.4189 82.9527 22.0382 83.1215 23.1968C82.4144 24.0087 81.6981 24.6518 80.9728 25.1125C80.252 25.5732 79.5951 25.8058 79.0066 25.815C78.0987 25.815 77.4281 25.3953 76.9993 24.5515C76.5705 23.7031 76.4199 22.4852 76.5522 20.8978L76.9628 15.967L80.6261 15.9442C80.7766 15.6888 80.8724 15.3695 80.8998 14.9909C80.9317 14.6077 80.8907 14.293 80.7812 14.0376L77.1179 14.0604L77.4692 9.84114C77.1179 9.73167 76.7438 9.67693 76.3515 9.6815C75.909 9.6815 75.5258 9.74079 75.2064 9.85483L74.8552 14.0741L73.0349 14.0832C72.8981 14.3386 72.816 14.6579 72.784 15.0365C72.7521 15.4197 72.784 15.7344 72.8753 15.9898L74.6955 15.9807L74.5039 18.2659C74.3807 19.7438 73.9838 21.0575 73.3178 22.2024C72.6472 23.3473 71.7941 24.2504 70.7494 24.9073C69.9556 25.4045 69.0888 25.7146 68.1536 25.8423C68.4912 25.3041 68.6919 24.7111 68.7421 24.0634C68.8014 23.3655 68.6828 22.7361 68.3954 22.1705C68.108 21.6094 67.6472 21.0666 67.0177 20.5466L65.2704 19.0779C64.9922 18.8589 64.7686 18.6537 64.5953 18.4621C64.4219 18.2705 64.2851 18.0744 64.1893 17.8691C64.5451 17.5179 64.8553 17.1302 65.1199 16.7105C65.3845 16.2909 65.5761 15.8393 65.6993 15.3604C65.6172 15.1369 65.4529 14.9498 65.2066 14.7902C64.9557 14.6351 64.6774 14.5211 64.3626 14.4481C64.0478 14.3797 63.7513 14.3751 63.4685 14.439C63.2632 14.5211 62.994 14.7491 62.661 15.1323C62.328 15.5155 62.1272 16.1039 62.0588 16.8975C62.0542 16.9614 62.0497 17.0161 62.0451 17.0663C61.5022 17.4677 60.9001 17.7733 60.2386 17.9923C59.7869 18.1428 59.349 18.234 58.9247 18.2842C58.5324 17.7003 58.0351 17.2214 57.4238 16.8428C56.5981 16.3319 55.6355 16.0811 54.5407 16.0856C53.4412 16.0902 52.433 16.3547 51.5161 16.8747C50.5946 17.3947 49.8464 18.1017 49.2625 18.9958C48.6785 19.8898 48.3409 20.907 48.2497 22.0519C48.2178 22.4487 48.2178 22.8364 48.2497 23.2196C47.8209 24.0634 47.3236 24.7385 46.767 25.2402C46.2105 25.742 45.6585 25.9974 45.1202 26.002C45.1156 26.002 45.1111 26.002 45.1065 26.002C45.1065 26.002 45.1019 26.002 45.0974 26.002C44.5408 26.002 44.1576 25.8013 43.9569 25.3908C43.7516 24.9802 43.6923 24.3143 43.7653 23.3929L43.9341 21.3449C44.0527 19.9308 43.779 18.8042 43.122 17.9695C42.4605 17.1302 41.5208 16.7151 40.289 16.7242C40.1431 16.7242 39.9925 16.7333 39.8465 16.7516C40.7224 15.447 41.4022 14.1334 41.8812 12.8243C42.3602 11.5106 42.6476 10.238 42.7525 8.99729C42.8666 7.60152 42.6202 6.46575 42.0135 5.59453C41.4067 4.72331 40.4943 4.28542 39.2854 4.2763C37.9579 4.26718 36.9132 4.69595 36.1468 5.55804C35.3803 6.42013 34.9287 7.64714 34.7964 9.23448L33.8931 20.1224C33.2088 20.7428 32.4744 21.2673 31.6897 21.6961C30.9552 22.061 29.979 22.1978 29.0985 22.2434C27.8348 22.3119 26.5529 22.2298 25.3212 21.9424C24.0666 21.655 22.8349 21.167 21.6944 20.5831C20.7501 20.0996 19.7921 19.5158 19.085 18.7084C18.9709 18.5807 18.866 18.4484 18.7702 18.3116C18.4645 17.8782 17.9308 17.6638 17.4381 17.8782C17.397 17.8965 17.3605 17.9102 17.3195 17.933C16.8587 18.2021 16.6078 18.9137 16.9408 19.3835C17.0959 19.6024 17.2647 19.8077 17.4381 20.0084C18.2775 20.9754 19.3267 21.7326 20.4672 22.3347C21.8085 23.0417 23.282 23.6529 24.7646 23.995C26.229 24.3325 27.771 24.4603 29.2719 24.3599C30.531 24.2778 31.8904 24.0817 32.9899 23.4111C33.0537 23.3701 33.1085 23.329 33.1587 23.2834C33.3138 23.1831 33.4826 23.069 33.6605 22.9368L33.259 27.7992C33.6422 27.9086 34.0209 27.9634 34.3995 27.9588C34.5774 27.9588 34.769 27.9406 34.9698 27.9086C35.1705 27.8767 35.353 27.8356 35.5218 27.7855L35.8639 23.662C35.9597 22.7087 36.1924 21.8648 36.5665 21.135C36.936 20.4052 37.4059 19.8259 37.9624 19.4017C38.5236 18.9775 39.1303 18.7631 39.7827 18.7586C40.4533 18.7586 40.9551 18.9775 41.2881 19.4291C41.6211 19.8807 41.7534 20.5101 41.685 21.322L41.4752 23.849C41.3611 25.1992 41.5938 26.2437 42.1594 26.9781C42.7297 27.7125 43.601 28.0774 44.7826 28.0728C46.4705 28.0637 47.8847 27.27 49.0298 25.6918C49.4951 26.4216 50.111 26.9918 50.8911 27.4069C51.6666 27.822 52.5562 28.0272 53.5553 28.0227C54.6684 28.0181 55.6766 27.7535 56.5799 27.2336C57.4831 26.7136 58.2222 25.9974 58.797 25.0897C59.3718 24.182 59.7048 23.1557 59.8006 22.0108C59.8554 21.3677 59.8143 20.7747 59.7048 20.2136C60.6674 20.0357 61.6072 19.6891 62.515 19.16C62.7978 19.6845 63.2267 20.1726 63.7924 20.6287L65.5396 22.0473C66.2741 22.6448 66.6162 23.2971 66.5569 23.995C66.5113 24.5515 66.2695 25.0076 65.827 25.368C65.3891 25.7283 64.8234 25.9108 64.1345 25.9153C63.3316 25.9199 62.5013 25.6371 61.6482 25.0715C60.9274 25.4729 60.5488 26.0932 60.5123 26.9371C61.1054 27.2974 61.6802 27.562 62.2413 27.7262C62.8024 27.8904 63.3681 27.9679 63.9429 27.9679C64.4356 27.9679 64.9055 27.9086 65.3571 27.7946C65.6491 27.8402 65.9137 27.8767 66.16 27.9086C66.4018 27.9406 66.6573 27.9542 66.9173 27.9542C66.9264 27.9542 66.9356 27.9542 66.9447 27.9542C66.9538 27.9542 66.9584 27.9542 66.9675 27.9542C68.5551 27.9451 69.9967 27.6076 71.2877 26.9416C72.5787 26.2757 73.6599 25.3543 74.5267 24.1729C74.7548 25.3452 75.2201 26.262 75.9227 26.9143C76.6206 27.5711 77.5376 27.8949 78.669 27.8858C80.4208 27.8767 82.1178 27.0557 83.7601 25.4273C84.5813 26.9781 86.0639 27.749 88.2126 27.7353C89.4261 27.7262 90.5028 27.4343 91.4425 26.8458C92.3823 26.262 93.1396 25.4409 93.7098 24.3781C94.2481 23.3792 94.5812 22.2069 94.7135 20.875C95.5529 21.2901 96.3695 21.5638 97.1632 21.6778C97.1678 23.5845 97.6696 25.0715 98.6733 26.148C99.6723 27.2244 101.059 27.7535 102.825 27.7444C104.773 27.7353 106.844 27.1651 109.034 26.043C109.481 26.563 110.078 26.969 110.826 27.2609C111.57 27.5483 112.405 27.6942 113.322 27.6897H113.345C114.015 27.6897 114.663 27.5939 115.283 27.416C115.904 27.2381 116.497 26.9964 117.063 26.6908C117.09 26.3715 117.053 26.043 116.962 25.7009L116.976 25.6827ZM100.635 17.486C101.219 16.8702 101.903 16.56 102.688 16.5554C103.18 16.5554 103.564 16.6832 103.833 16.9432C104.107 17.2032 104.225 17.5407 104.193 17.9558C104.143 18.5761 103.751 19.0642 103.016 19.4291C102.282 19.7894 101.31 19.9765 100.097 19.981C99.9004 19.981 99.6951 19.9673 99.4853 19.9354C99.6678 18.9182 100.051 18.1017 100.635 17.486ZM39.29 13.5495C38.5509 15.1642 37.529 16.8018 36.2289 18.4621L36.9953 9.19343C37.1595 7.24118 37.8347 6.26049 39.0345 6.25136C39.6093 6.25136 40.0244 6.47943 40.289 6.94925C40.5536 7.41451 40.6494 8.09415 40.5764 8.98361C40.4578 10.4113 40.029 11.9348 39.29 13.5541V13.5495ZM57.506 22.0062C57.4056 23.1968 57.0133 24.1546 56.3244 24.8708C55.6355 25.5915 54.7642 25.9518 53.7149 25.9564C52.6657 25.9609 51.8537 25.6097 51.2834 24.8981C50.7132 24.1866 50.4759 23.2515 50.5717 22.0929C50.6447 21.2035 50.8956 20.4371 51.329 19.7894C51.7579 19.1463 52.3144 18.6856 52.9896 18.4119C53.4002 19.014 53.9841 19.4884 54.7505 19.8305C55.5169 20.1772 56.3883 20.3596 57.3691 20.387C57.5105 20.8796 57.5561 21.4178 57.506 22.0062ZM85.2382 17.8463L85.772 11.4148C85.9362 9.44431 86.178 8.07134 86.5065 7.29135C86.876 6.41557 87.3915 5.97768 88.0667 5.97312C89.2117 5.96856 89.6816 7.24118 89.4672 9.80009C89.3212 11.5471 88.8787 13.3853 88.1397 15.3102C87.4006 17.2351 86.3833 19.1372 85.1014 21.021C85.0877 20.1954 85.1333 19.1372 85.2428 17.8509L85.2382 17.8463ZM110.092 23.2789C109.75 22.6448 109.627 21.8055 109.713 20.7564C109.786 19.8807 110.065 19.1645 110.544 18.5944C111.023 18.0288 111.593 17.7414 112.25 17.7368C112.742 17.7368 113.112 17.8737 113.367 18.161C113.623 18.4438 113.728 18.8407 113.687 19.3515C113.573 20.7336 112.373 22.0427 110.092 23.2789Z" fill="black"/>
<path d="M17.3286 17.9239C17.3651 17.9011 17.4061 17.8874 17.4472 17.8691C17.9399 17.6548 18.4736 17.8691 18.7793 18.3025C18.8796 18.4439 18.9846 18.5716 19.0941 18.6993C19.7099 18.9502 20.2893 19.1144 20.7318 19.1737C20.9006 19.1965 21.074 19.2056 21.2473 19.2056C23.2409 19.2056 25.531 17.7734 25.8321 15.625C25.969 14.6488 25.6724 13.6271 25.0064 12.7468C24.2263 11.7204 23.0584 11.018 21.8814 10.8584C21.0831 10.7534 19.5138 10.8812 18.0539 11.3464L18.3003 9.57662C18.4098 8.77382 18.2866 7.97102 17.949 7.25489C17.9764 7.17735 18.0037 7.0998 18.0129 7.0177C18.1132 6.31069 18.4873 5.68579 19.0667 5.25246C19.6461 4.81913 20.3942 4.62756 21.1196 4.72334C21.7081 4.80089 22.2464 4.39037 22.3239 3.80195C22.4015 3.21354 21.9909 2.6753 21.4024 2.59776C20.1114 2.42443 18.8249 2.7574 17.7848 3.52827C17.1233 4.0209 16.6078 4.67317 16.2702 5.40755C15.7775 5.11562 15.2301 4.92404 14.6461 4.8465C14.2584 4.79633 13.8752 4.80089 13.5011 4.8465C13.3551 4.23072 13.0768 3.63318 12.6708 3.09951C11.7766 1.9318 10.3487 1.129 8.75661 0.919182C8.16812 0.846201 7.6298 1.25216 7.55225 1.84057C7.4747 2.42899 7.88527 2.96723 8.47377 3.04477C9.50478 3.18161 10.4126 3.6788 10.9692 4.40861C11.1927 4.7051 11.4345 5.14755 11.4756 5.69491C10.6179 6.34262 10.0112 7.30963 9.85605 8.4454L9.60514 10.238C8.37797 9.43521 6.94095 8.87417 6.04223 8.75557C3.95285 8.47733 1.26584 9.96433 0.941941 12.2997C0.805082 13.2759 1.10161 14.2976 1.76766 15.1779C2.54776 16.2043 3.71562 16.9067 4.89262 17.0663C5.06597 17.0891 5.27582 17.1028 5.50848 17.1028C6.21103 17.1028 7.1508 16.9934 8.09969 16.7516C8.03582 16.9797 7.98564 17.2123 7.94914 17.4541C7.50207 20.6789 7.98564 25.4364 9.54584 27.4936C10.0568 28.1641 10.659 28.5472 11.3433 28.6385C11.4436 28.6522 11.5485 28.6567 11.6489 28.6567C14.4089 28.6567 16.6352 23.662 17.4381 19.9902C17.2647 19.7895 17.0959 19.5842 16.9408 19.3653C16.6078 18.8954 16.8587 18.1839 17.3195 17.9148L17.3286 17.9239ZM21.1241 12.9611C21.2929 12.9611 21.4526 12.9703 21.5986 12.9885C22.2053 13.0706 22.8759 13.4857 23.3002 14.0467C23.4872 14.293 23.7883 14.7857 23.7108 15.333C23.5648 16.3821 22.073 17.1895 21.0192 17.0527C20.0566 16.9249 17.9581 15.9123 17.1917 14.9043C17.0047 14.6625 16.9682 14.5029 16.9773 14.4527C17.0594 13.8643 19.4681 12.9611 21.1196 12.9611H21.1241ZM5.18002 14.9408C4.57328 14.8587 3.90267 14.4436 3.4784 13.8825C3.29136 13.6362 2.99027 13.1436 3.06782 12.5962C3.20468 11.6247 4.49116 10.8629 5.51305 10.8629C5.59516 10.8629 5.68184 10.8675 5.75939 10.8766C6.72197 11.0043 8.82048 12.0169 9.58689 13.025C9.77393 13.2667 9.81043 13.4264 9.80131 13.4766C9.71007 14.1243 6.79496 15.1551 5.18458 14.9362L5.18002 14.9408ZM15.5448 18.4667C14.9381 22.8136 12.5066 26.6315 11.6352 26.5175C11.5668 26.5083 11.4299 26.4217 11.2611 26.1982C10.2164 24.8252 9.65532 20.7975 10.0796 17.7505C10.2986 16.1723 11.5394 15.0046 12.9217 15.0046C13.0312 15.0046 13.1407 15.0137 13.2456 15.0274C13.9117 15.1141 14.5138 15.4744 14.9427 16.04C15.4445 16.7014 15.6635 17.5863 15.5448 18.4667ZM16.179 9.28925L15.9189 11.1457C15.7638 12.2724 14.6917 13.0615 13.5284 12.9018C12.9582 12.8243 12.4518 12.5369 12.1097 12.0854C11.7812 11.6566 11.6443 11.1275 11.7173 10.5984L11.9774 8.74189C12.1188 7.71103 13.0312 6.96296 14.0759 6.96296C14.1717 6.96296 14.2675 6.96753 14.3678 6.98121C14.9381 7.05875 15.4445 7.34612 15.7866 7.79769C16.1151 8.22646 16.2519 8.75557 16.179 9.28925Z" fill="black"/>
</svg>
